<svg width="450px" height="120px" viewBox="0 0 450 120" xmlns="http://www.w3.org/2000/svg">
<rect width="450" height="120" fill="white"/>
<line x1="35" y1="65" x2="415" y2="65" stroke="#BABABA" stroke-width="1.5" stroke-linecap="round"/>
<polygon points="415,65 407.6315120479769,68.1153467384692 407.6315120479769,61.884653261530794" fill="#BABABA"/>
<text x="423" y="70" font-size="14" font-family="serif" fill="#636363">x</text>
<line x1="75" y1="60" x2="75" y2="70" stroke="#333333" stroke-width="1" stroke-linecap="round"/>
<text x="75" y="85" font-size="12" font-family="serif" fill="#636363" text-anchor="middle">-3</text>
<line x1="125" y1="60" x2="125" y2="70" stroke="#333333" stroke-width="1" stroke-linecap="round"/>
<text x="125" y="85" font-size="12" font-family="serif" fill="#636363" text-anchor="middle">-2</text>
<line x1="175" y1="60" x2="175" y2="70" stroke="#333333" stroke-width="1" stroke-linecap="round"/>
<text x="175" y="85" font-size="12" font-family="serif" fill="#636363" text-anchor="middle">-1</text>
<line x1="225" y1="60" x2="225" y2="70" stroke="#333333" stroke-width="1" stroke-linecap="round"/>
<text x="225" y="85" font-size="12" font-family="serif" fill="#636363" text-anchor="middle">0</text>
<line x1="275" y1="60" x2="275" y2="70" stroke="#333333" stroke-width="1" stroke-linecap="round"/>
<text x="275" y="85" font-size="12" font-family="serif" fill="#636363" text-anchor="middle">1</text>
<line x1="325" y1="60" x2="325" y2="70" stroke="#333333" stroke-width="1" stroke-linecap="round"/>
<text x="325" y="85" font-size="12" font-family="serif" fill="#636363" text-anchor="middle">2</text>
<line x1="375" y1="60" x2="375" y2="70" stroke="#333333" stroke-width="1" stroke-linecap="round"/>
<text x="375" y="85" font-size="12" font-family="serif" fill="#636363" text-anchor="middle">3</text>
<line x1="225" y1="65" x2="375" y2="65" stroke="#2980b9" stroke-width="3" stroke-linecap="round"/>
<line x1="75" y1="65" x2="225" y2="65" stroke="#e74c3c" stroke-width="3" stroke-linecap="round"/>
<text x="300" y="53" font-size="12" font-family="serif" fill="#2980b9" text-anchor="middle">|3| = 3</text>
<text x="150" y="53" font-size="12" font-family="serif" fill="#e74c3c" text-anchor="middle">|-3| = 3</text>
<text x="225" y="110" font-size="12" font-family="serif" fill="#333333" text-anchor="middle">Absolute value as distance from zero</text>
</svg>